HIERARCHY
ROOT Hips
{
	OFFSET -0.001795 -0.223333 0.028219
	CHANNELS 6 Xposition Yposition Zposition Zrotation Yrotation Xrotation 
	JOINT LeftUpLeg
	{
		OFFSET 0.069520 -0.091406 -0.006815
		CHANNELS 3 Zrotation Yrotation Xrotation
		JOINT LeftLeg
		{
			OFFSET 0.034277 -0.375199 -0.004496
			CHANNELS 3 Zrotation Yrotation Xrotation
			JOINT LeftFoot
			{
				OFFSET -0.013596 -0.397961 -0.043693
				CHANNELS 3 Zrotation Yrotation Xrotation
				JOINT LeftToe
				{
					OFFSET 0.026358 -0.055791 0.119288
					CHANNELS 3 Zrotation Yrotation Xrotation
					End Site
					{
						OFFSET 0.000000 0.000000 0.000000
					}
				}
			}
		}
	}
	JOINT RightUpLeg
	{
		OFFSET -0.067670 -0.090522 -0.004320
		CHANNELS 3 Zrotation Yrotation Xrotation
		JOINT RightLeg
		{
			OFFSET -0.038290 -0.382569 -0.008850
			CHANNELS 3 Zrotation Yrotation Xrotation
			JOINT RightFoot
			{
				OFFSET 0.015774 -0.398415 -0.042312
				CHANNELS 3 Zrotation Yrotation Xrotation
				JOINT RightToe
				{
					OFFSET -0.025372 -0.048144 0.123348
					CHANNELS 3 Zrotation Yrotation Xrotation
					End Site
					{
						OFFSET 0.000000 0.000000 0.000000
					}
				}
			}
		}
	}
	JOINT Spine
	{
		OFFSET -0.002533 0.108963 -0.026696
		CHANNELS 3 Zrotation Yrotation Xrotation
		JOINT Spine1
		{
			OFFSET 0.005487 0.135180 0.001092
			CHANNELS 3 Zrotation Yrotation Xrotation
			JOINT Spine2
			{
				OFFSET 0.001457 0.052922 0.025425
				CHANNELS 3 Zrotation Yrotation Xrotation
				JOINT Neck
				{
					OFFSET -0.002778 0.213870 -0.042857
					CHANNELS 3 Zrotation Yrotation Xrotation
					JOINT Head
					{
						OFFSET 0.005152 0.064970 0.051349
						CHANNELS 3 Zrotation Yrotation Xrotation
						End Site
						{
							OFFSET 0.000000 0.000000 0.000000
						}
					}
				}
				JOINT LeftShoulder
				{
					OFFSET 0.078845 0.121749 -0.034090
					CHANNELS 3 Zrotation Yrotation Xrotation
					JOINT LeftArm
					{
						OFFSET 0.090977 0.030469 -0.008868
						CHANNELS 3 Zrotation Yrotation Xrotation
						JOINT LeftForeArm
						{
							OFFSET 0.259612 -0.012772 -0.027456
							CHANNELS 3 Zrotation Yrotation Xrotation
							JOINT LeftHand
							{
								OFFSET 0.249234 0.008986 -0.001171
								CHANNELS 3 Zrotation Yrotation Xrotation
								End Site
								{
									OFFSET 0.000000 0.000000 0.000000
								}
							}
						}
					}
				}
				JOINT RightShoulder
				{
					OFFSET -0.081759 0.118833 -0.038615
					CHANNELS 3 Zrotation Yrotation Xrotation
					JOINT RightArm
					{
						OFFSET -0.096012 0.032551 -0.009143
						CHANNELS 3 Zrotation Yrotation Xrotation
						JOINT RightForeArm
						{
							OFFSET -0.253742 -0.013329 -0.021401
							CHANNELS 3 Zrotation Yrotation Xrotation
							JOINT RightHand
							{
								OFFSET -0.255298 0.007772 -0.005559
								CHANNELS 3 Zrotation Yrotation Xrotation
								End Site
								{
									OFFSET 0.000000 0.000000 0.000000
								}
							}
						}
					}
				}
			}
		}
	}
}
MOTION
Frames: 6
Frame Time: 0.050000
0.000000 0.957680 0.000000 -0.802415 -0.993005 2.380024 0.271214 0.002473 0.079431 0.729899 0.040329 -2.999217 -1.173902 2.428949 11.605114 0.000000 0.000000 0.000000 1.784229 0.189503 -2.114240 -2.791177 0.282354 -0.109671 3.312820 1.963487 10.625762 0.000000 0.000000 0.000000 4.691364 -0.130321 0.683827 -2.402792 1.140465 -2.512130 -3.086882 3.352934 4.392698 8.301223 -4.676067 -10.015958 0.000000 0.000000 0.000000 -15.199534 -6.841141 1.216037 -57.592886 -3.133349 -5.372479 -11.570771 -22.211037 2.948600 0.000000 0.000000 0.000000 16.626011 -0.442806 -1.029894 63.497575 4.058285 -3.938310 7.547223 21.891366 2.194733 0.000000 0.000000 0.000000 
0.000288 0.956935 0.000610 -1.108509 -1.193510 2.726550 0.581680 0.008047 0.207574 0.706904 0.073074 -3.764469 -1.054409 2.562063 11.487914 0.000000 0.000000 0.000000 1.777338 0.224241 -2.433856 -2.522170 0.280682 0.329975 3.624052 3.096770 9.633129 0.000000 0.000000 0.000000 5.259749 -0.102648 0.159197 -2.675348 1.263803 -1.754125 -3.423079 3.719990 3.733847 9.291677 -5.154922 -10.774018 0.000000 0.000000 0.000000 -15.559870 -6.648205 0.995420 -57.028028 -2.895318 -5.337768 -12.262960 -23.138425 3.185422 0.000000 0.000000 0.000000 16.091504 -0.881954 -1.173199 64.845678 3.720338 -4.075001 7.901028 22.286127 2.313721 0.000000 0.000000 0.000000 
0.000435 0.956731 0.000949 -0.883790 -1.419796 2.609451 0.607178 0.009272 0.221963 0.172282 0.104544 -3.487954 -0.958025 2.679862 11.445962 0.000000 0.000000 0.000000 1.758413 0.224546 -2.439455 -2.895403 0.335670 0.574180 3.544604 3.038280 9.374462 0.000000 0.000000 0.000000 4.894197 -0.097402 0.206198 -2.301878 1.090369 -2.957776 -3.798020 4.321383 4.632008 9.047686 -5.097827 -10.225789 0.000000 0.000000 0.000000 -15.604525 -6.598989 0.883082 -56.769130 -2.825298 -5.427645 -13.026255 -22.431188 3.220934 0.000000 0.000000 0.000000 17.444135 -0.306954 -0.799233 63.637053 3.828565 -4.102281 8.157539 22.768109 2.453476 0.000000 0.000000 0.000000 
0.000440 0.957122 0.001369 -1.072304 -1.342674 2.666043 0.815345 0.015886 0.345899 0.183942 0.113998 -3.775838 -1.024326 2.620262 11.565206 0.000000 0.000000 0.000000 1.992296 0.240989 -2.597694 -2.665692 0.306822 0.509691 3.274064 2.139911 10.032817 0.000000 0.000000 0.000000 4.786195 -0.054479 -0.298612 -2.300170 1.092105 -1.855807 -3.429257 3.826615 3.785050 9.110388 -5.240598 -9.749786 0.000000 0.000000 0.000000 -15.270605 -6.293276 0.839773 -57.771045 -2.740845 -5.513884 -12.639025 -22.827997 3.214502 0.000000 0.000000 0.000000 16.164056 -0.046176 -0.736242 64.404286 3.883040 -3.974497 8.824301 22.801628 2.546040 0.000000 0.000000 0.000000 
0.000366 0.957610 0.001759 -1.058708 -1.250182 2.437140 0.791415 0.038357 0.600289 0.226899 0.110145 -3.759613 -1.106870 2.536966 11.683067 0.000000 0.000000 0.000000 1.965935 0.199097 -2.225530 -2.638680 0.288981 0.264218 3.321066 2.082498 10.355153 0.000000 0.000000 0.000000 4.581125 -0.055386 -0.214012 -2.012098 0.961475 -1.687209 -3.539472 3.843160 3.653784 8.795723 -5.107661 -9.285355 0.000000 0.000000 0.000000 -15.776750 -6.452859 0.849906 -57.353369 -2.758020 -5.432276 -12.798046 -22.546383 3.200617 0.000000 0.000000 0.000000 16.421739 0.096750 -0.657805 64.132837 3.998075 -3.895971 9.033362 23.287529 2.651502 0.000000 0.000000 0.000000 
0.000244 0.957867 0.002271 -1.146241 -1.142257 2.353326 0.925569 0.043271 0.692443 0.193476 0.111336 -3.719668 -1.168062 2.456402 11.702800 0.000000 0.000000 0.000000 2.061491 0.189229 -2.142854 -2.547835 0.287964 0.392687 3.204593 1.869059 10.339797 0.000000 0.000000 0.000000 4.555308 -0.061430 -0.123353 -1.944887 0.931656 -1.788609 -3.404749 3.524325 3.711547 8.620565 -5.064849 -8.994612 0.000000 0.000000 0.000000 -16.121076 -6.244535 0.782468 -57.007395 -2.540595 -5.495779 -12.945763 -23.064938 3.320048 0.000000 0.000000 0.000000 16.181238 0.434212 -0.529435 64.299688 4.132460 -3.840780 9.059114 23.377530 2.655802 0.000000 0.000000 0.000000 
